<svg width="36" height="36" viewBox="0 0 36 36" fill="none" xmlns="http://www.w3.org/2000/svg">
<path d="M17.9986 0.352783C27.7451 0.352783 35.6457 8.25337 35.6457 17.9998C35.6457 27.7463 27.7451 35.6469 17.9986 35.6469C14.6633 35.6469 11.5398 34.7204 8.87864 33.1093L3.52805 34.6834C3.22084 34.7738 2.89496 34.7797 2.58467 34.7006C2.27437 34.6215 1.99112 34.4602 1.76468 34.2338C1.53825 34.0074 1.377 33.7241 1.29789 33.4138C1.21878 33.1035 1.22473 32.7776 1.31511 32.4704L2.88923 27.1198C1.22503 24.3692 0.347302 21.2147 0.351578 17.9998C0.351578 8.25337 8.25217 0.352783 17.9986 0.352783ZM17.9986 3.88219C15.4709 3.88174 12.9894 4.55994 10.8133 5.84599C8.63723 7.13203 6.84632 8.97874 5.62763 11.1933C4.40894 13.4078 3.80716 15.9089 3.88515 18.4354C3.96314 20.9619 4.71803 23.4212 6.07099 25.5563C6.47158 26.1863 6.60923 26.9804 6.38334 27.7445L5.60511 30.3934L8.25393 29.6151C9.01805 29.3893 9.81217 29.5269 10.4422 29.9275C12.2922 31.0989 14.3893 31.8239 16.5677 32.0452C18.7462 32.2665 20.9462 31.9781 22.994 31.2026C25.0418 30.4272 26.8811 29.1861 28.3666 27.5774C29.8521 25.9687 30.943 24.0365 31.5531 21.9336C32.1633 19.8306 32.2759 17.6146 31.882 15.4606C31.4882 13.3067 30.5987 11.2738 29.2839 9.52286C27.9691 7.77187 26.2651 6.35072 24.3064 5.37175C22.3478 4.39278 20.1883 3.88282 17.9986 3.88219ZM11.8222 15.3528C12.5242 15.3528 13.1975 15.6317 13.6939 16.1281C14.1903 16.6245 14.4692 17.2978 14.4692 17.9998C14.4692 18.7019 14.1903 19.3752 13.6939 19.8716C13.1975 20.368 12.5242 20.6469 11.8222 20.6469C11.1201 20.6469 10.4468 20.368 9.95041 19.8716C9.45399 19.3752 9.17511 18.7019 9.17511 17.9998C9.17511 17.2978 9.45399 16.6245 9.95041 16.1281C10.4468 15.6317 11.1201 15.3528 11.8222 15.3528ZM24.1751 15.3528C24.8772 15.3528 25.5504 15.6317 26.0469 16.1281C26.5433 16.6245 26.8222 17.2978 26.8222 17.9998C26.8222 18.7019 26.5433 19.3752 26.0469 19.8716C25.5504 20.368 24.8772 20.6469 24.1751 20.6469C23.4731 20.6469 22.7998 20.368 22.3034 19.8716C21.8069 19.3752 21.528 18.7019 21.528 17.9998C21.528 17.2978 21.8069 16.6245 22.3034 16.1281C22.7998 15.6317 23.4731 15.3528 24.1751 15.3528Z" fill="white"/>
</svg>
