<svg width="15" height="14" viewBox="0 0 15 14" fill="none" xmlns="http://www.w3.org/2000/svg">
<path d="M7.49967 10.3335C7.68856 10.3335 7.8469 10.2696 7.97467 10.1418C8.10245 10.0141 8.16634 9.85572 8.16634 9.66683C8.16634 9.47794 8.10245 9.31961 7.97467 9.19183C7.8469 9.06405 7.68856 9.00016 7.49967 9.00016C7.31079 9.00016 7.15245 9.06405 7.02467 9.19183C6.8969 9.31961 6.83301 9.47794 6.83301 9.66683C6.83301 9.85572 6.8969 10.0141 7.02467 10.1418C7.15245 10.2696 7.31079 10.3335 7.49967 10.3335ZM6.83301 7.66683H8.16634V3.66683H6.83301V7.66683ZM7.49967 13.6668C6.57745 13.6668 5.71079 13.4918 4.89967 13.1418C4.08856 12.7918 3.38301 12.3168 2.78301 11.7168C2.18301 11.1168 1.70801 10.4113 1.35801 9.60016C1.00801 8.78905 0.833008 7.92238 0.833008 7.00016C0.833008 6.07794 1.00801 5.21127 1.35801 4.40016C1.70801 3.58905 2.18301 2.8835 2.78301 2.2835C3.38301 1.6835 4.08856 1.2085 4.89967 0.858496C5.71079 0.508496 6.57745 0.333496 7.49967 0.333496C8.4219 0.333496 9.28856 0.508496 10.0997 0.858496C10.9108 1.2085 11.6163 1.6835 12.2163 2.2835C12.8163 2.8835 13.2913 3.58905 13.6413 4.40016C13.9913 5.21127 14.1663 6.07794 14.1663 7.00016C14.1663 7.92238 13.9913 8.78905 13.6413 9.60016C13.2913 10.4113 12.8163 11.1168 12.2163 11.7168C11.6163 12.3168 10.9108 12.7918 10.0997 13.1418C9.28856 13.4918 8.4219 13.6668 7.49967 13.6668ZM7.49967 12.3335C8.98856 12.3335 10.2497 11.8168 11.283 10.7835C12.3163 9.75016 12.833 8.48905 12.833 7.00016C12.833 5.51127 12.3163 4.25016 11.283 3.21683C10.2497 2.1835 8.98856 1.66683 7.49967 1.66683C6.01079 1.66683 4.74967 2.1835 3.71634 3.21683C2.68301 4.25016 2.16634 5.51127 2.16634 7.00016C2.16634 8.48905 2.68301 9.75016 3.71634 10.7835C4.74967 11.8168 6.01079 12.3335 7.49967 12.3335Z" fill="#DF3131"/>
</svg>
