<svg width="24" height="24" viewBox="0 0 24 24" fill="none" xmlns="http://www.w3.org/2000/svg">
<path fill-rule="evenodd" clip-rule="evenodd" d="M20.5031 3.48784C18.247 1.23989 15.2467 0.00137308 12.0501 0C5.46351 0 0.102786 5.33474 0.100142 11.8919C0.0993368 13.9879 0.649482 16.0338 1.69527 17.8374L0 24L6.33477 22.3462C8.08017 23.2937 10.0453 23.7931 12.0452 23.7938H12.0502C18.6361 23.7938 23.9972 18.4584 24 11.9011C24.0011 8.72361 22.7592 5.73568 20.5031 3.48784ZM12.0502 21.7853H12.0462C10.264 21.7847 8.51592 21.3081 6.99104 20.4075L6.6283 20.1934L2.86915 21.1747L3.87251 17.5271L3.63636 17.1529C2.64219 15.5793 2.11699 13.7603 2.1178 11.8924C2.11998 6.44247 6.57552 2.00858 12.0542 2.00858C14.707 2.0095 17.2009 3.03896 19.0761 4.90749C20.9513 6.7759 21.9833 9.25934 21.9822 11.9006C21.98 17.351 17.5245 21.7853 12.0502 21.7853ZM17.4982 14.3821C17.1996 14.2334 15.7317 13.5145 15.458 13.4153C15.1843 13.3163 14.9852 13.2667 14.7862 13.5642C14.5872 13.8617 14.0148 14.5309 13.8407 14.7293C13.6665 14.9275 13.4923 14.9525 13.1938 14.8036C12.8951 14.655 11.9331 14.3411 10.7926 13.3287C9.90502 12.5408 9.30578 11.5677 9.1316 11.2701C8.95742 10.9726 9.11298 10.8118 9.26256 10.6637C9.39684 10.5305 9.56114 10.3165 9.71049 10.143C9.85984 9.96956 9.90951 9.84553 10.0091 9.64723C10.1086 9.44894 10.0589 9.27536 9.98412 9.12672C9.90951 8.97786 9.31234 7.51519 9.06354 6.92019C8.82117 6.34087 8.57502 6.41925 8.39175 6.41009C8.2178 6.40151 8.01855 6.39957 7.81942 6.39957C7.6204 6.39957 7.29698 6.47394 7.02323 6.77144C6.74959 7.06894 5.97824 7.78786 5.97824 9.25053C5.97824 10.7132 7.04806 12.1261 7.19741 12.3245C7.34665 12.5228 9.30291 15.5242 12.2981 16.8115C13.0103 17.1177 13.5666 17.3004 14.0002 17.4375C14.7156 17.6637 15.3665 17.6317 15.8809 17.5552C16.4546 17.4699 17.6474 16.8363 17.8962 16.1422C18.145 15.448 18.145 14.853 18.0704 14.7291C17.9958 14.6053 17.7968 14.5309 17.4982 14.3821Z" fill="white"/>
</svg>
